<svg width="872" height="168" viewBox="0 0 872 168" fill="none" xmlns="http://www.w3.org/2000/svg">
<path d="M84 2C129.287 2 166 38.7127 166 84C166 129.287 129.287 166 84 166C38.7127 166 2 129.287 2 84C2 38.7127 38.7127 2 84 2ZM134.396 84C134.396 111.833 111.833 134.396 84 134.396C56.167 134.396 33.6035 111.833 33.6035 84C33.6035 56.167 56.167 33.6035 84 33.6035C111.833 33.6035 134.396 56.167 134.396 84ZM138.396 84C138.396 53.9579 114.042 29.6035 84 29.6035C53.9579 29.6035 29.6035 53.9579 29.6035 84C29.6035 114.042 53.9579 138.396 84 138.396C114.042 138.396 138.396 114.042 138.396 84Z" stroke="#D6D5D3" stroke-width="4"/>
<path d="M336.956 45.9169L318.267 51.2063C317.092 48.0914 315.358 45.0647 313.066 42.1261C310.832 39.1288 307.776 36.6604 303.897 34.7209C300.019 32.7815 295.052 31.8118 288.999 31.8118C280.712 31.8118 273.807 33.7218 268.282 37.542C262.816 41.3033 260.083 46.0932 260.083 51.9115C260.083 57.0834 261.964 61.168 265.726 64.1654C269.487 67.1627 275.364 69.6605 283.357 71.6587L303.457 76.5955C315.564 79.5341 324.585 84.0301 330.521 90.0835C336.457 96.0782 339.425 103.807 339.425 113.269C339.425 121.027 337.191 127.962 332.725 134.074C328.317 140.186 322.146 145.005 314.212 148.532C306.278 152.058 297.051 153.821 286.531 153.821C272.719 153.821 261.288 150.824 252.237 144.829C243.187 138.834 237.456 130.077 235.047 118.558L254.794 113.621C256.675 120.909 260.23 126.375 265.461 130.019C270.75 133.662 277.656 135.484 286.178 135.484C295.875 135.484 303.574 133.427 309.275 129.313C315.035 125.141 317.914 120.145 317.914 114.327C317.914 109.625 316.269 105.687 312.978 102.514C309.686 99.2812 304.632 96.8716 297.815 95.2848L275.246 89.9953C262.846 87.0568 253.736 82.502 247.918 76.331C242.158 70.1013 239.278 62.3141 239.278 52.9694C239.278 45.3292 241.424 38.5705 245.714 32.6933C250.063 26.8162 255.969 22.2026 263.433 18.8527C270.956 15.5027 279.478 13.8277 288.999 13.8277C302.399 13.8277 312.919 16.7663 320.559 22.6434C328.258 28.5206 333.724 36.2784 336.956 45.9169Z" fill="#D6D5D3"/>
<path d="M425.752 153.821C413.528 153.821 402.802 150.912 393.575 145.093C384.407 139.275 377.237 131.135 372.065 120.674C366.952 110.213 364.395 97.9882 364.395 84.0007C364.395 69.8956 366.952 57.583 372.065 47.0629C377.237 36.5428 384.407 28.3736 393.575 22.5553C402.802 16.7369 413.528 13.8277 425.752 13.8277C437.977 13.8277 448.673 16.7369 457.842 22.5553C467.069 28.3736 474.239 36.5428 479.352 47.0629C484.524 57.583 487.11 69.8956 487.11 84.0007C487.11 97.9882 484.524 110.213 479.352 120.674C474.239 131.135 467.069 139.275 457.842 145.093C448.673 150.912 437.977 153.821 425.752 153.821ZM425.752 135.132C435.038 135.132 442.679 132.751 448.673 127.991C454.668 123.231 459.105 116.971 461.985 109.214C464.865 101.456 466.305 93.0515 466.305 84.0007C466.305 74.9499 464.865 66.5162 461.985 58.6996C459.105 50.883 454.668 44.5651 448.673 39.7459C442.679 34.9266 435.038 32.517 425.752 32.517C416.467 32.517 408.826 34.9266 402.832 39.7459C396.837 44.5651 392.4 50.883 389.52 58.6996C386.64 66.5162 385.2 74.9499 385.2 84.0007C385.2 93.0515 386.64 101.456 389.52 109.214C392.4 116.971 396.837 123.231 402.832 127.991C408.826 132.751 416.467 135.132 425.752 135.132Z" fill="#D6D5D3"/>
<path d="M539.673 69.5429V151H518.868V15.5909H538.968V36.7485H540.731C543.905 29.8723 548.724 24.3478 555.189 20.175C561.654 15.9435 569.999 13.8277 580.225 13.8277C589.394 13.8277 597.416 15.7084 604.292 19.4698C611.169 23.1724 616.517 28.8144 620.337 36.3959C624.157 43.9186 626.067 53.4396 626.067 64.9588V151H605.262V66.3693C605.262 55.7317 602.5 47.4449 596.975 41.509C591.451 35.5143 583.869 32.517 574.231 32.517C567.59 32.517 561.654 33.9569 556.423 36.8367C551.251 39.7165 547.167 43.9186 544.169 49.4431C541.172 54.9676 539.673 61.6676 539.673 69.5429Z" fill="#D6D5D3"/>
<path d="M703.932 154.174C695.351 154.174 687.564 152.557 680.57 149.325C673.576 146.034 668.022 141.303 663.908 135.132C659.794 128.902 657.737 121.379 657.737 112.564C657.737 104.806 659.266 98.5172 662.322 93.6979C665.378 88.8199 669.462 84.9998 674.575 82.2375C679.689 79.4753 685.331 77.4183 691.502 76.0665C697.731 74.656 703.99 73.5394 710.279 72.7166C718.507 71.6587 725.178 70.8653 730.291 70.3363C735.463 69.7486 739.224 68.7789 741.575 67.4272C743.984 66.0754 745.189 63.7246 745.189 60.3746V59.6693C745.189 50.9712 742.809 44.2125 738.048 39.3933C733.347 34.574 726.206 32.1644 716.626 32.1644C706.694 32.1644 698.907 34.3389 693.265 38.688C687.623 43.0371 683.656 47.68 681.364 52.6168L661.616 45.5642C665.143 37.3363 669.844 30.9302 675.721 26.346C681.657 21.7031 688.122 18.4707 695.116 16.6488C702.169 14.7681 709.104 13.8277 715.921 13.8277C720.27 13.8277 725.266 14.3567 730.908 15.4146C736.609 16.4137 742.104 18.5 747.393 21.6737C752.741 24.8474 757.178 29.6372 760.705 36.0433C764.231 42.4494 765.994 51.03 765.994 61.7851V151H745.189V132.663H744.131C742.721 135.602 740.37 138.746 737.079 142.096C733.788 145.446 729.409 148.296 723.943 150.647C718.478 152.998 711.807 154.174 703.932 154.174ZM707.105 135.484C715.333 135.484 722.268 133.868 727.91 130.636C733.611 127.403 737.902 123.231 740.781 118.117C743.72 113.004 745.189 107.627 745.189 101.985V82.9428C744.308 84.0007 742.368 84.9704 739.371 85.852C736.432 86.6748 733.023 87.4094 729.145 88.0559C725.324 88.6436 721.592 89.1726 717.949 89.6427C714.364 90.0541 711.454 90.4067 709.221 90.7006C703.814 91.4059 698.76 92.5519 694.058 94.1387C689.415 95.6668 685.654 97.9882 682.774 101.103C679.953 104.159 678.543 108.332 678.543 113.621C678.543 120.85 681.217 126.316 686.565 130.019C691.972 133.662 698.819 135.484 707.105 135.484Z" fill="#D6D5D3"/>
<path d="M803.968 151V15.5909H824.068V36.0433H825.478C827.946 29.3434 832.413 23.907 838.878 19.7342C845.343 15.5615 852.63 13.4751 860.741 13.4751C862.269 13.4751 864.179 13.5045 866.471 13.5633C868.763 13.622 870.497 13.7102 871.672 13.8277V34.9854C870.967 34.8091 869.351 34.5446 866.824 34.192C864.355 33.7806 861.74 33.5749 858.978 33.5749C852.395 33.5749 846.518 34.956 841.346 37.7183C836.233 40.4217 832.178 44.1831 829.181 49.0024C826.242 53.7628 824.773 59.1992 824.773 65.3114V151H803.968Z" fill="#D6D5D3"/>
</svg>
