<svg width="168" height="168" viewBox="0 0 168 168" fill="none" xmlns="http://www.w3.org/2000/svg">
<path d="M84 2C129.287 2 166 38.7127 166 84C166 129.287 129.287 166 84 166C38.7127 166 2 129.287 2 84C2 38.7127 38.7127 2 84 2ZM134.396 84C134.396 111.833 111.833 134.396 84 134.396C56.167 134.396 33.6035 111.833 33.6035 84C33.6035 56.167 56.167 33.6035 84 33.6035C111.833 33.6035 134.396 56.167 134.396 84ZM138.396 84C138.396 53.9579 114.042 29.6035 84 29.6035C53.9579 29.6035 29.6035 53.9579 29.6035 84C29.6035 114.042 53.9579 138.396 84 138.396C114.042 138.396 138.396 114.042 138.396 84Z" stroke="#D6D5D3" stroke-width="4"/>
</svg>
